# xmcd
#
# Track frame offsets: 
#        150
#        12975
#        25777
#        39687
#        53180
#        64672
#        75890
#        89787
#        111630
#        125232
#        138232
#        151785
#        167900
#        183687
#
# Disc length: 2600 seconds
#
# Revision: 3
# Processed by: cddbd v1.5.2PL0 Copyright (c) Steve Scherf et al.
# Submitted via: ExactAudioCopyFreeDBPlugin 1.0
#
DISCID=c00a260e
DTITLE=Tanya Tucker - Collection
DYEAR=1992
DGENRE=Country
TTITLE0=San Antonio Stroll
TTITLE1=Don't Believe My Heart Can Stand Another You
TTITLE2=You've Got Me To Hold On To
TTITLE3=Here's Some Love
TTITLE4=It's A Cowboy Lovin' Night
TTITLE5=Pecos Promenade
TTITLE6=Lizzie And The Rainman
TTITLE7=Texas (When I Die)
TTITLE8=Should I Do It
TTITLE9=Can I See You Tonight
TTITLE10=Tanya Tucker and Glen Campbell - Dream Lover
TTITLE11=Dancing The Night Away
TTITLE12=Delta Dawn
TTITLE13=The Jamestown Ferry
EXTD=(c)1992 MCA Records USA, Import by ARIS\nCatalog: MCAD 19583\n
EXTT0=
EXTT1=
EXTT2=
EXTT3=
EXTT4=
EXTT5=
EXTT6=
EXTT7=
EXTT8=
EXTT9=
EXTT10=Feat. Glen Campbell
EXTT11=
EXTT12=
EXTT13=
PLAYORDER=
